<?xml version="1.0" encoding="UTF-8" standalone="no"?>
<svg
   xmlns:dc="http://purl.org/dc/elements/1.1/"
   xmlns:cc="http://creativecommons.org/ns#"
   xmlns:rdf="http://www.w3.org/1999/02/22-rdf-syntax-ns#"
   xmlns:svg="http://www.w3.org/2000/svg"
   xmlns="http://www.w3.org/2000/svg"
   xmlns:sodipodi="http://sodipodi.sourceforge.net/DTD/sodipodi-0.dtd"
   xmlns:inkscape="http://www.inkscape.org/namespaces/inkscape"
   viewBox="0 0 64 64"
   id="svg3386"
   version="1.1"
   inkscape:version="0.91 r13725"
   sodipodi:docname="fe_groups.svg">
  <metadata
     id="metadata3396">
    <rdf:RDF>
      <cc:Work
         rdf:about="">
        <dc:format>image/svg+xml</dc:format>
        <dc:type
           rdf:resource="http://purl.org/dc/dcmitype/StillImage" />
      </cc:Work>
    </rdf:RDF>
  </metadata>
  <defs
     id="defs3394" />
  <sodipodi:namedview
     pagecolor="#ffffff"
     bordercolor="#666666"
     borderopacity="1"
     objecttolerance="10"
     gridtolerance="10"
     guidetolerance="10"
     inkscape:pageopacity="0"
     inkscape:pageshadow="2"
     inkscape:window-width="1441"
     inkscape:window-height="960"
     id="namedview3392"
     showgrid="false"
     inkscape:zoom="3.2966102"
     inkscape:cx="-29.173522"
     inkscape:cy="-21"
     inkscape:window-x="152"
     inkscape:window-y="0"
     inkscape:window-maximized="0"
     inkscape:current-layer="svg3386" />
  <path
     d="M0 0h64v64H0z"
     id="path3388"
     fill="#4C7E3A"
     style="fill:#f08424;fill-opacity:1" />
  <style
     id="style3727"
     type="text/css">
	.st0{fill:#333333;}
</style>
  <g
     transform="matrix(0.08948267,0,0,0.08948267,8.9269255,9.2580942)"
     id="g3556"
     style="fill:#ffffff">
    <g
       id="g3558"
       style="fill:#ffffff">
      <path
         inkscape:connector-curvature="0"
         d="m 337.118,269.871 c 25.13,19.968 45.376,48.935 57.969,83.351 66.033,-3.371 112.442,-19.337 112.442,-19.337 0,-61.853 -25.654,-116.077 -64.162,-146.426 -16.932,20.482 -42.531,33.537 -71.18,33.537 -8.823,0 -17.355,-1.242 -25.436,-3.554 0.387,3.415 0.593,6.884 0.593,10.402 0.001,15.155 -3.693,29.446 -10.226,42.027 z"
         id="path3560"
         style="fill:#ffffff" />
      <path
         inkscape:connector-curvature="0"
         d="m 174.883,269.871 c -6.532,-12.581 -10.227,-26.872 -10.227,-42.027 0,-3.51 0.205,-6.971 0.59,-10.378 -7.717,2.093 -15.833,3.218 -24.213,3.218 -28.649,0 -54.25,-13.055 -71.181,-33.537 C 31.344,217.495 5.69,271.719 5.69,333.572 c 0,0 44.998,16.175 111.316,19.4 12.599,-34.306 32.808,-63.181 57.877,-83.101 z"
         id="path3562"
         style="fill:#ffffff" />
    </g>
    <path
       inkscape:connector-curvature="0"
       d="m 391.343,433.041 c 0,-61.853 -25.654,-116.077 -64.162,-146.426 -16.932,20.482 -42.531,33.537 -71.18,33.537 -28.649,0 -54.25,-13.055 -71.181,-33.537 -38.508,30.349 -64.163,84.573 -64.163,146.426 0,0 55.51,19.959 134.096,19.959 78.586,0 136.59,-19.959 136.59,-19.959 z"
       id="path3564"
       style="fill:#ffffff" />
    <circle
       cx="256.00101"
       cy="227.84399"
       r="74.844002"
       id="circle3566"
       style="fill:#ffffff" />
    <path
       inkscape:connector-curvature="0"
       d="m 372.188,53.844 c -41.336,0 -74.845,33.508 -74.845,74.844 0,6.554 0.849,12.909 2.431,18.967 19.537,10.687 34.737,28.307 42.3,49.551 9.217,4.057 19.397,6.325 30.114,6.325 41.334,0 74.844,-33.508 74.844,-74.844 0,-41.336 -33.51,-74.843 -74.844,-74.843 z"
       id="path3568"
       style="fill:#ffffff" />
    <path
       inkscape:connector-curvature="0"
       d="m 213.452,147.323 c 1.579,-6.053 2.425,-12.401 2.425,-18.948 0,-41.336 -33.51,-74.844 -74.844,-74.844 -41.336,0 -74.845,33.508 -74.845,74.844 0,41.336 33.509,74.844 74.845,74.844 10.484,0 20.461,-2.164 29.52,-6.057 7.647,-21.446 23.079,-39.194 42.899,-49.839 z"
       id="path3570"
       style="fill:#ffffff" />
  </g>
</svg>
